<?xml version="1.0" encoding="UTF-8" standalone="no"?>
<!-- Created with Inkscape (http://www.inkscape.org/) -->

<svg
   width="213.8376"
   height="76.45385"
   viewBox="0 0 213.8376 76.45385"
   version="1.1"
   id="svg5"
   xml:space="preserve"
   inkscape:version="1.2.1 (9c6d41e, 2022-07-14)"
   sodipodi:docname="gfdl alternatif.svg"
   xmlns:inkscape="http://www.inkscape.org/namespaces/inkscape"
   xmlns:sodipodi="http://sodipodi.sourceforge.net/DTD/sodipodi-0.dtd"
   xmlns:xlink="http://www.w3.org/1999/xlink"
   xmlns="http://www.w3.org/2000/svg"
   xmlns:svg="http://www.w3.org/2000/svg"><sodipodi:namedview
     id="namedview7"
     pagecolor="#505050"
     bordercolor="#eeeeee"
     borderopacity="1"
     inkscape:showpageshadow="0"
     inkscape:pageopacity="0"
     inkscape:pagecheckerboard="0"
     inkscape:deskcolor="#505050"
     inkscape:document-units="px"
     showgrid="false"
     inkscape:zoom="0.46484375"
     inkscape:cx="332.36975"
     inkscape:cy="-57.008403"
     inkscape:window-width="1292"
     inkscape:window-height="704"
     inkscape:window-x="0"
     inkscape:window-y="0"
     inkscape:window-maximized="1"
     inkscape:current-layer="layer1" /><defs
     id="defs2"><linearGradient
       inkscape:collect="always"
       id="linearGradient5117"><stop
         style="stop-color:#1563ab;stop-opacity:1;"
         offset="0"
         id="stop5113" /><stop
         style="stop-color:#5a9bea;stop-opacity:1;"
         offset="0.11565275"
         id="stop5121" /><stop
         style="stop-color:#2081e0;stop-opacity:1;"
         offset="0.20976269"
         id="stop5123" /><stop
         style="stop-color:#2081e0;stop-opacity:1;"
         offset="0.80369246"
         id="stop5125" /><stop
         style="stop-color:#5a9bea;stop-opacity:1;"
         offset="0.87717962"
         id="stop5127" /><stop
         style="stop-color:#1563ab;stop-opacity:1;"
         offset="1"
         id="stop5115" /></linearGradient><linearGradient
       inkscape:collect="always"
       id="linearGradient5043"><stop
         style="stop-color:#2081e0;stop-opacity:1;"
         offset="0"
         id="stop5039" /><stop
         style="stop-color:#2081e0;stop-opacity:1;"
         offset="0.7924186"
         id="stop5111" /><stop
         style="stop-color:#1967b0;stop-opacity:1;"
         offset="1"
         id="stop5041" /></linearGradient><linearGradient
       id="linearGradient659"><stop
         style="stop-color:#a0a0a0;stop-opacity:1.0000000;"
         offset="0.0000000"
         id="stop660" /><stop
         style="stop-color:#000000;stop-opacity:1.0000000;"
         offset="1.0000000"
         id="stop661" /></linearGradient><linearGradient
       xlink:href="#linearGradient659"
       id="linearGradient662"
       x1="195.46632"
       y1="419.20795"
       x2="193.38409"
       y2="98.165245"
       gradientTransform="scale(1.4833363,0.67415597)"
       gradientUnits="userSpaceOnUse" /><linearGradient
       inkscape:collect="always"
       xlink:href="#linearGradient5043"
       id="linearGradient5045"
       x1="0"
       y1="32"
       x2="156.05638"
       y2="32"
       gradientUnits="userSpaceOnUse"
       gradientTransform="matrix(1.1797836,0,0,1,-28.056381,0)" /><linearGradient
       inkscape:collect="always"
       xlink:href="#linearGradient5117"
       id="linearGradient5119"
       x1="138.04086"
       y1="34.99733"
       x2="185.23259"
       y2="34.266743"
       gradientUnits="userSpaceOnUse" /></defs><g
     inkscape:label="Katman 1"
     inkscape:groupmode="layer"
     id="layer1"
     transform="translate(28.056381,12.45385)"><rect
       style="fill:url(#linearGradient5045);fill-opacity:1;stroke:none;stroke-width:3.40326"
       id="rect3936"
       width="184.11276"
       height="64"
       x="-28.056381"
       y="0" /><text
       xml:space="preserve"
       style="font-style:normal;font-variant:normal;font-weight:normal;font-stretch:normal;font-size:51.2554px;font-family:'Liberation Serif';-inkscape-font-specification:'Liberation Serif';fill:#ffffff;fill-opacity:1;stroke:none;stroke-width:1.02511"
       x="-8.2456589"
       y="48.718071"
       id="text4718"><tspan
         sodipodi:role="line"
         id="tspan4716"
         x="-8.2456589"
         y="48.718071"
         style="stroke-width:1.02511">GFDL</tspan></text><path
       id="rect4927"
       style="fill:url(#linearGradient5119);fill-opacity:1;stroke-width:1.71494"
       d="m 138.04085,2.7819142 c 0,-9.778543 38.25579,-24.3196332 46.75114,-4.296377 2.22576,5.2460371 -1e-5,38.3733078 -1e-5,53.8266808 0,15.583709 -46.75113,15.583709 -46.75113,0 0,-13.786974 0,-49.5303038 0,-49.5303038 z"
       sodipodi:nodetypes="zsssz" /><path
       id="path5197"
       style="fill:#1a5fb4;stroke-width:2.92768"
       d="m 185.60733,2.0860713 c -0.0468,9.7979437 -10.43699,14.5399207 -23.31166,14.5399207 -12.87467,0 -23.31166,-6.509744 -23.31166,-14.5399207 0,-8.0301765 10.43699,-14.5399213 23.31166,-14.5399213 12.87467,0 23.35001,6.5098364 23.31166,14.5399213 z"
       sodipodi:nodetypes="sssss" /><path
       sodipodi:type="spiral"
       style="fill:none;fill-opacity:1;fill-rule:evenodd;stroke:#62a0ea;stroke-width:3;stroke-dasharray:none"
       id="path4925"
       sodipodi:cx="200.03694"
       sodipodi:cy="-25.491497"
       sodipodi:expansion="1"
       sodipodi:revolution="2.9992239"
       sodipodi:radius="21.357296"
       sodipodi:argument="-18.72427"
       sodipodi:t0="0.060016975"
       d="m 200.43347,-24.272571 c -0.74893,1.271534 -2.57726,0.653034 -3.30837,-0.271685 -1.44599,-1.828927 -0.41416,-4.445189 1.41388,-5.55199 2.79221,-1.690552 6.35534,-0.18363 7.79562,2.556076 1.96172,3.731574 -0.0429,8.279936 -3.69827,10.039244 -4.66296,2.24429 -10.21121,-0.26732 -12.28287,-4.840466 -2.53267,-5.590825 0.49039,-12.146158 5.98266,-14.526499 6.51685,-2.824392 14.08334,0.71265 16.77013,7.124857 3.11819,7.441799 -0.93439,16.021998 -8.26706,19.013754 -8.36606,3.4133862 -17.96167,-1.155749 -21.25738,-9.409248 -3.70954,-9.289876 1.37686,-19.902081 10.55145,-23.501009 10.21336,-4.00641 21.84303,1.597767 25.74463,11.693638 1.1059,2.861641 1.56826,5.959626 1.36171,9.019824"
       transform="matrix(0.86411795,0.4767592,0.99779746,-0.5505141,15.962321,-108.58805)" /></g></svg>
