<?xml version="1.0" encoding="UTF-8"?>
<svg height="128px" viewBox="0 0 128 128" width="128px" xmlns="http://www.w3.org/2000/svg" xmlns:xlink="http://www.w3.org/1999/xlink">
    <linearGradient id="a" gradientTransform="matrix(0.208114 0 0 0.294899 -1.055573 245.431915)" gradientUnits="userSpaceOnUse" x1="91.710396" x2="536.595886" y1="-449.394012" y2="-449.394012">
        <stop offset="0" stop-color="#613583"/>
        <stop offset="0.070377" stop-color="#dc8add"/>
        <stop offset="0.135857" stop-color="#9141ac"/>
        <stop offset="0.879382" stop-color="#9141ac"/>
        <stop offset="0.958937" stop-color="#dc8add"/>
        <stop offset="1" stop-color="#613583"/>
    </linearGradient>
    <linearGradient id="b" gradientUnits="userSpaceOnUse" x1="56.45019950299" x2="55.69249972292" y1="49.54187971981" y2="61.81814065605">
        <stop offset="0" stop-color="#9141ac"/>
        <stop offset="1" stop-color="#dc8add"/>
    </linearGradient>
    <path d="m 24.554688 23.257812 h 78.890624 c 3.960938 0 7.171876 3.210938 7.171876 7.171876 v 75.304687 c 0 3.960937 -3.210938 7.171875 -7.171876 7.171875 h -78.890624 c -3.960938 0 -7.171876 -3.210938 -7.171876 -7.171875 v -75.304687 c 0 -3.960938 3.210938 -7.171876 7.171876 -7.171876 z m 0 0" fill="url(#a)"/>
    <path d="m 24.554688 16.957031 h 78.890624 c 3.960938 0 7.171876 3.210938 7.171876 7.171875 v 75.304688 c 0 3.960937 -3.210938 7.171875 -7.171876 7.171875 h -78.890624 c -3.960938 0 -7.171876 -3.210938 -7.171876 -7.171875 v -75.304688 c 0 -3.960937 3.210938 -7.171875 7.171876 -7.171875 z m 0 0" fill="#613583"/>
    <path d="m 50.460938 40.785156 h 10.460937 v 42.066406 h -10.460937 z m 0 0" fill="url(#b)"/>
    <g fill="#dc8add">
        <path d="m 46.648438 40.785156 h 19.605468 v 8.757813 h -19.605468 z m 0 0"/>
        <path d="m 65.914062 40.707031 l 2.957032 0.039063 l 3.480468 0.722656 l 3.574219 1.878906 l 2.421875 2.375 l 1.941406 3.097656 l 0.941407 3.246094 l 0.121093 6.140625 l -1 3.101563 l -1.976562 3.304687 l -2.894531 2.695313 l -3.359375 1.652344 l -3.136719 0.628906 l -8.0625 0.023437 v -8.550781 l 4.90625 -0.160156 l 1.710937 -0.585938 l 1.632813 -1.433594 l 0.855469 -3.21875 l -0.371094 -2.921874 l -1.484375 -2.015626 l -1.582031 -1.109374 l -0.675782 -0.152344 z m 0 0"/>
    </g>
</svg>
