<?xml version="1.0" encoding="UTF-8"?>
<svg height="16px" viewBox="0 0 16 16" width="16px" xmlns="http://www.w3.org/2000/svg" xmlns:xlink="http://www.w3.org/1999/xlink">
    <linearGradient id="a" gradientUnits="userSpaceOnUse" x1="5.56122586046" x2="5.29436531014" y1="3.9704582312" y2="8.29413607232">
        <stop offset="0"/>
        <stop offset="1" stop-color="#5e5c64"/>
    </linearGradient>
    <path d="m 3.453125 0.886719 h 3.683594 v 14.816406 h -3.683594 z m 0 0" fill="url(#a)"/>
    <g fill="#5e5c64">
        <path d="m 2.109375 0.886719 h 6.902344 v 3.082031 h -6.902344 z m 0 0"/>
        <path d="m 8.894531 0.859375 l 1.042969 0.011719 l 1.222656 0.257812 l 1.261719 0.660156 l 0.851563 0.835938 l 0.683593 1.089844 l 0.332031 1.144531 l 0.042969 2.164063 l -0.351562 1.089843 l -0.695313 1.164063 l -1.023437 0.949218 l -1.179688 0.582032 l -1.105469 0.222656 l -2.839843 0.007812 v -3.011718 l 1.726562 -0.054688 l 0.605469 -0.207031 l 0.574219 -0.503906 l 0.300781 -1.136719 l -0.132812 -1.027344 l -0.523438 -0.710937 l -0.554688 -0.390625 l -0.238281 -0.050782 z m 0 0"/>
    </g>
</svg>
